. 
 
http://www.torrenting.com          :     Once & For all ;)


               www . Torrenting . Com 

(((((((((((((= Enjoy No RAR releases =))))))))))))))))))))


...................................NFO:....................................

.[IMG]http://i.imgur.com/2mcr9.png[/IMG]

 
TITLE: 

The Muppets 2011 DVDSCR XViD - INSPiRAL

IMDB: 
 
http://www.imdb.com/title/tt1204342/


SOURCES:

VIDEO - Deadpool THANKS
AUDIO - Deadpool THANKS
SUBS  - None Add

STATS:

Video
ID                               : 0
Format                           : MPEG-4 Visual
Format profile                   : Advanced Simple@L5
Format settings, BVOP            : 2
Format settings, QPel            : No
Format settings, GMC             : No warppoints
Format settings, Matrix          : Default (MPEG)
Muxing mode                      : Packed bitstream
Codec ID                         : XVID
Codec ID/Hint                    : XviD
Duration                         : 1h 42mn
Bit rate                         : 1 808 Kbps
Width                            : 720 pixels
Height                           : 384 pixels
Display aspect ratio             : 1.875
Frame rate                       : 23.976 fps
Color space                      : YUV
Chroma subsampling               : 4:2:0
Bit depth                        : 8 bits
Scan type                        : Progressive
Compression mode                 : Lossy
Bits/(Pixel*Frame)               : 0.273
Stream size                      : 1.30 GiB (90%)
Writing library                  : XviD 64

Audio
ID                               : 1
Format                           : MPEG Audio
Format version                   : Version 1
Format profile                   : Layer 3
Codec ID                         : 55
Codec ID/Hint                    : MP3
Duration                         : 1h 42mn
Bit rate mode                    : Constant
Bit rate                         : 192 Kbps
Channel(s)                       : 2 channels
Sampling rate                    : 48.0 KHz
Compression mode                 : Lossy
Stream size                      : 141 MiB (10%)
Alignment                        : Split accross interleaves
Interleave, duration             : 42 ms (1.00 video frame)
Interleave, preload duration     : 500 ms
Writing library                  : LAME3.98.4




NOTES:

Sources:
Some nice sweet ass vobs .....audio was pcm and the video looked bang on,fine tuning needed but nothing more.

Workdone:
Just a simple rip with some minor tweaks ...chorma,contrast,fix ivtc and thats its really folks.
Encoded the pcm audio to mp3 and remuxed back to our rip...

Overall v9 a 9 m7 ....muppets,rollin back the yrs lol.


SCREENS:

[IMG]http://i.imgur.com/en4bI.png[/IMG]
[IMG]http://i.imgur.com/awCR2.png[/IMG]
[IMG]http://i.imgur.com/rLKMS.png[/IMG]
[IMG]http://i.imgur.com/Sa24c.png[/IMG]
[IMG]http://i.imgur.com/tmwFB.png[/IMG]


GREETZ: 

Past,Present and Future

[IMG]http://i.imgur.com/2mcr9.png[/IMG]